<?xml version="1.0" encoding="utf-8"?>
<svg version="1.1" id="Layer_1" xmlns="http://www.w3.org/2000/svg" xmlns:xlink="http://www.w3.org/1999/xlink" xml:space="preserve" x="0px" y="0px" viewBox="0 0 66 25">
<g fill="#0FC978">
	<g>
		<path d="M50.3,10.4c-0.6,0-0.9,0.6-1.1,1.9c0,0.3,0,1.1,0,2.7c0,1.2,0,1.9,0.1,2.2c0.1,0.9,0.5,1.3,1.1,1.3
			c0.5,0,0.8-0.5,1-1.6c0-0.2,0-1,0-2.4c0-1.4,0-2.2,0-2.4C51.2,11,50.8,10.4,50.3,10.4z"/>
		<path d="M65,6.4C65,2.9,62.1,0,58.6,0H33.4C29.9,0,27,2.9,27,6.4v12.1c0,3.6,2.9,6.4,6.4,6.4h25.1
			c3.6,0,6.4-2.9,6.4-6.4V6.4z M38,7h-3v13h-2V7h-3V4h8V7z M45,20h-2v-0.7c0,1-1.1,1.5-1.9,1.5c-1.4,0-2.1-1-2.1-2.9V8h2v8.3
			c0,0.6,0.1,1.1,0.2,1.4c0.1,0.5,0.4,0.7,0.8,0.7c0.4,0,0.7-0.3,0.8-0.8c0.1-0.3,0.1-0.8,0.1-1.5V8h2V20z M53.2,18.5
			C52.8,20,52,20.8,51,20.8c-0.9,0-2-0.5-2-1.6V20h-2V4h2v5.4c1-0.9,1.1-1.3,1.9-1.3c1.1,0,1.9,0.8,2.2,2.3c0.2,0.8,0.3,2.1,0.3,4.1
			C53.4,16.4,53.4,17.7,53.2,18.5z M61,15h-4c0,0,0,0.3,0,0.7c0,0.9,0,1.5,0.1,1.9c0.2,0.8,0.5,1,1,1c0.7,0,1.1-0.6,1.1-2.6h2
			c0,0,0,0.3,0,0.4c0,0.1,0,0.3,0,0.3c0,1.4-0.3,2.4-0.8,3.1c-0.5,0.6-1.3,1-2.4,1c-1.1,0-1.9-0.4-2.4-1.1C55.2,19,55,18.1,54.9,17
			c0-0.5-0.1-1.5-0.1-2.9c0-1.1,0-2,0.1-2.5c0.1-1,0.3-1.7,0.6-2.3c0.5-0.8,1.4-1.3,2.6-1.3c1.1,0,1.8,0.5,2.4,1.4
			c0.4,0.7,0.5,2.2,0.5,4.5V15z"/>
		<path d="M58.1,10.2c-0.4,0-0.7,0.2-0.8,0.5c-0.2,0.4-0.3,1-0.2,1.7l0,0.2c0,0.1,0,0.4,0,0.4h2v-0.6
			c0-0.7,0-1.2-0.1-1.5C58.8,10.5,58.5,10.2,58.1,10.2z"/>
	</g>
	<g>
		<path d="M3,21v-7.3L0,4h2.6l1.9,6.1L6.3,4h2.5L6,13.7V21H3z"/>
		<path d="M9.6,14.5c0-2.1,0.2-3.6,0.5-4.4c0.5-1.3,1.4-2,2.8-2c1.4,0,2.3,0.7,2.8,2c0.3,0.9,0.5,2.4,0.5,4.4
			c0,2.1-0.2,3.6-0.5,4.4c-0.5,1.3-1.4,1.9-2.8,1.9c-1.4,0-2.3-0.7-2.8-2C9.8,18.1,9.6,16.6,9.6,14.5z M12,14.7
			c0,1.5-0.1,2.3-0.1,2.5c0.1,1.1,0.4,1.6,1,1.6c0.6,0,0.9-0.5,1-1.4c0-0.2,0-1,0-2.3v-1.2c0-1.2,0-2-0.1-2.2
			c-0.1-0.9-0.5-1.4-1-1.4c-0.5,0-0.8,0.4-0.9,1.2c0,0.3,0,0.9,0,2V14.7z"/>
		<path d="M24,8v13h-2v-1.6c-1,1-1.1,1.5-1.9,1.5c-1.4,0-2.1-1-2.1-2.9V8h2v8.4c0,0.7,0,1.1,0,1.4
			c0.1,0.5,0.4,0.7,0.8,0.7c0.4,0,0.8-0.3,1-0.8c0.1-0.3,0.2-0.8,0.2-1.5V8H24z"/>
	</g>
</g>
</svg>
