<?xml version="1.0" encoding="utf-8"?>
<svg version="1.1" xmlns="http://www.w3.org/2000/svg" xmlns:xlink="http://www.w3.org/1999/xlink" xml:space="preserve" x="0px" y="0px" viewBox="0 0 60 60">
	<g fill="#050e1b">
		<path d="M35,22.1l-2.6,2.6c1.4,1.4,2.2,3.2,2.2,5.3c0,2.1-0.8,3.9-2.2,5.3l2.6,2.6c2-2,3.3-4.8,3.3-7.9C38.3,26.9,37,24.1,35,22.1z"
		/>
		<path d="M45.7,30c0-5.2-2.1-9.8-5.5-13.2l-2.6,2.6C40.3,22.1,42,25.9,42,30c0,4.1-1.7,7.9-4.4,10.6l2.6,2.6
		C43.7,39.8,45.7,35.2,45.7,30z"/>
		<path d="M53.2,30c0-7.2-2.9-13.8-7.7-18.5l-2.6,2.6c4.1,4.1,6.6,9.7,6.6,15.8c0,6.2-2.5,11.8-6.6,15.8l2.6,2.6
		C50.3,43.8,53.2,37.2,53.2,30z"/>
		<polygon points="6.8,37.5 16.6,37.5 27.3,47.3 27.3,12.7 16.8,22.5 6.8,22.5 "/>
	</g>
</svg>
