<?xml version="1.0" encoding="utf-8"?>
<svg version="1.1" id="Layer_1" xmlns="http://www.w3.org/2000/svg" xmlns:xlink="http://www.w3.org/1999/xlink" xml:space="preserve" x="0px" y="0px" viewBox="0 0 44 25">
<path fill="#0FC978" d="M0.5,11.4c-0.1,0-0.2,0.1-0.2,0.2L0,14l0.3,2.4c0,0.1,0.1,0.2,0.2,0.2c0.1,0,0.2-0.1,0.2-0.2l0,0v0
	c0,0,0,0,0,0L1.1,14l-0.4-2.4C0.7,11.5,0.6,11.4,0.5,11.4z M2.3,10.1c0-0.1-0.1-0.2-0.2-0.2C2,9.9,2,10,2,10.1c0,0-0.4,3.9-0.4,3.9
	L2,17.9C2,18,2,18,2.1,18c0.1,0,0.2-0.1,0.2-0.2L2.8,14L2.3,10.1z M9.1,6.4c-0.2,0-0.3,0.1-0.3,0.3L8.4,14l0.3,4.7
	c0,0.2,0.2,0.3,0.3,0.3c0.2,0,0.3-0.1,0.3-0.3v0L9.8,14L9.4,6.8C9.4,6.6,9.3,6.4,9.1,6.4z M5.6,8.9c-0.1,0-0.2,0.1-0.3,0.3L5,14
	l0.4,4.6c0,0.1,0.1,0.3,0.3,0.3c0.1,0,0.2-0.1,0.3-0.3L6.3,14L5.9,9.2C5.8,9.1,5.7,8.9,5.6,8.9z M12.7,19c0.2,0,0.4-0.2,0.4-0.4
	l0.3-4.6l-0.3-9.6c0-0.2-0.2-0.4-0.4-0.4c-0.2,0-0.4,0.2-0.4,0.4c0,0-0.3,9.6-0.3,9.6l0.3,4.6C12.3,18.8,12.5,19,12.7,19z M20,19
	c0.3,0,0.6-0.2,0.6-0.6v0v0l0.2-4.5L20.6,2.9c0-0.3-0.3-0.6-0.6-0.6c-0.3,0-0.6,0.2-0.6,0.6L19.2,14c0,0,0.2,4.5,0.2,4.5
	C19.4,18.8,19.7,19,20,19z M16.3,19c0.3,0,0.5-0.2,0.5-0.5v0l0.3-4.5l-0.3-9.7c0-0.3-0.2-0.5-0.5-0.5c-0.3,0-0.5,0.2-0.5,0.5
	L15.6,14l0.3,4.5C15.8,18.8,16,19,16.3,19z M7.3,19c0.2,0,0.3-0.1,0.3-0.3L8.1,14L7.6,9.5c0-0.2-0.1-0.3-0.3-0.3
	c-0.2,0-0.3,0.1-0.3,0.3L6.7,14l0.4,4.7C7.1,18.8,7.2,19,7.3,19z M3.9,18.7c0.1,0,0.2-0.1,0.2-0.2L4.5,14L4.1,9.3
	c0-0.1-0.1-0.2-0.2-0.2c-0.1,0-0.2,0.1-0.2,0.2c0,0-0.4,4.7-0.4,4.7l0.4,4.5C3.6,18.6,3.7,18.7,3.9,18.7z M18.1,4.1
	c-0.3,0-0.5,0.2-0.5,0.5L17.4,14l0.2,4.5c0,0.3,0.2,0.5,0.5,0.5c0.3,0,0.5-0.2,0.5-0.5v0l0.3-4.5l-0.3-9.4
	C18.7,4.4,18.4,4.1,18.1,4.1z M10.9,19c0.2,0,0.4-0.2,0.4-0.4l0.4-4.7l-0.4-8.9c0-0.2-0.2-0.4-0.4-0.4c-0.2,0-0.4,0.2-0.4,0.4
	c0,0-0.3,8.9-0.3,8.9l0.3,4.7C10.5,18.9,10.7,19,10.9,19z M14.9,18.6L14.9,18.6l0.3-4.6L14.9,4c0-0.2-0.2-0.4-0.4-0.4
	c-0.2,0-0.4,0.2-0.4,0.4l-0.3,10l0.3,4.6c0,0.2,0.2,0.4,0.4,0.4C14.7,19,14.9,18.8,14.9,18.6L14.9,18.6z M38.5,8.3
	c-0.7,0-1.4,0.1-2.1,0.4C36,3.8,31.9,0,26.9,0c-1.2,0-2.4,0.2-3.5,0.6c-0.4,0.2-0.5,0.3-0.5,0.6v17.1c0,0.3,0.3,0.6,0.6,0.6
	c0,0,14.9,0,15,0c3,0,5.4-2.4,5.4-5.4C43.9,10.7,41.5,8.3,38.5,8.3z M21.8,1.3c-0.3,0-0.6,0.3-0.6,0.6L21,14l0.2,4.4
	c0,0.3,0.3,0.6,0.6,0.6c0.3,0,0.6-0.3,0.6-0.6v0l0.3-4.4L22.4,1.9C22.4,1.5,22.2,1.3,21.8,1.3z M4.4,22.5c-0.6-0.2-0.8-0.2-0.8-0.5
	c0-0.2,0.1-0.4,0.6-0.4c0.4,0,0.7,0.1,0.9,0.4l0.6-0.6c-0.4-0.4-0.8-0.6-1.5-0.6c-0.8,0-1.4,0.4-1.4,1.2c0,0.8,0.5,1,1.3,1.2
	c0.8,0.2,0.9,0.3,0.9,0.5c0,0.3-0.2,0.4-0.7,0.4c-0.4,0-0.7-0.1-1-0.5l-0.6,0.5C2.9,24.7,3.5,25,4.1,25c1.1,0,1.6-0.5,1.6-1.3
	C5.7,22.8,5,22.6,4.4,22.5z M8.1,20.8c-1.1,0-1.7,0.9-1.7,2.1S7,25,8.1,25c1.1,0,1.7-0.9,1.7-2.1S9.2,20.8,8.1,20.8z M8.1,24.2
	c-0.6,0-0.9-0.6-0.9-1.3c0-0.7,0.3-1.3,0.9-1.3c0.7,0,0.9,0.6,0.9,1.3C9,23.6,8.7,24.2,8.1,24.2z M13.1,23.2c0,0.6-0.3,1-0.8,1
	c-0.5,0-0.8-0.4-0.8-1.1v-2.2h-0.8v2.3c0,1.2,0.7,1.8,1.6,1.8c1,0,1.6-0.7,1.6-1.8v-2.2h-0.8V23.2z M17.4,22.6c0,0.2,0,0.7,0,0.9
	c-0.1-0.1-0.2-0.3-0.3-0.5l-1.4-2.1h-0.8v4h0.8v-1.8c0-0.2,0-0.7,0-0.9c0.1,0.1,0.2,0.3,0.3,0.5l1.5,2.2h0.7v-4h-0.8V22.6z
	 M20.4,20.9h-1.3v4h1.2c1,0,2.1-0.6,2.1-2C22.4,21.5,21.6,20.9,20.4,20.9z M20.4,24.2H20v-2.5h0.4c0.9,0,1.2,0.4,1.2,1.2
	C21.6,23.7,21.2,24.2,20.4,24.2z M24.9,21.6c0.4,0,0.6,0.2,0.7,0.4l0.7-0.3c-0.3-0.5-0.7-0.9-1.5-0.9c-1.1,0-1.8,0.9-1.8,2.1
	c0,1.3,0.7,2.1,1.8,2.1c0.7,0,1.2-0.3,1.5-0.9l-0.7-0.4c-0.2,0.4-0.4,0.5-0.8,0.5c-0.6,0-1-0.6-1-1.3C24,22.2,24.3,21.6,24.9,21.6z
	 M27.9,20.9h-0.8v4h2.4v-0.8h-1.6V20.9z M31.7,20.8c-1.1,0-1.7,0.9-1.7,2.1s0.6,2.1,1.7,2.1c1.1,0,1.7-0.9,1.7-2.1
	S32.8,20.8,31.7,20.8z M31.7,24.2c-0.7,0-0.9-0.6-0.9-1.3c0-0.7,0.3-1.3,0.9-1.3c0.6,0,0.9,0.6,0.9,1.3
	C32.6,23.6,32.3,24.2,31.7,24.2z M36.6,23.2c0,0.6-0.3,1-0.8,1c-0.5,0-0.8-0.4-0.8-1.1v-2.2h-0.8v2.3c0,1.2,0.7,1.8,1.6,1.8
	c1,0,1.6-0.7,1.6-1.8v-2.2h-0.8V23.2z M39.7,20.9h-1.3v4h1.2c1,0,2.1-0.6,2.1-2C41.7,21.5,40.9,20.9,39.7,20.9z M39.7,24.2h-0.4
	v-2.5h0.4c0.9,0,1.2,0.4,1.2,1.2C40.9,23.7,40.5,24.2,39.7,24.2z"/>
</svg>
