<?xml version="1.0" encoding="utf-8"?>
<svg version="1.1" xmlns="http://www.w3.org/2000/svg" xmlns:xlink="http://www.w3.org/1999/xlink" xml:space="preserve" x="0px" y="0px" viewBox="0 0 60 60">
<g fill="#050e1b">
	<rect x="38.9" y="33.1" transform="matrix(-0.7071 0.7071 -0.7071 -0.7071 98.437 40.7742)" width="3.7" height="15.4"/>
	<path d="M12.5,27c0,8,6.5,14.6,14.6,14.6c8,0,14.6-6.5,14.6-14.6S35.1,12.5,27,12.5C19,12.5,12.5,19,12.5,27z M15.6,27
		c0-6.3,5.1-11.4,11.4-11.4c6.3,0,11.4,5.1,11.4,11.4S33.4,38.5,27,38.5C20.7,38.5,15.6,33.4,15.6,27z"/>
</g>
</svg>