<?xml version="1.0" encoding="utf-8"?>
<!-- Generator: Adobe Illustrator 18.1.0, SVG Export Plug-In . SVG Version: 6.00 Build 0)  -->
<svg version="1.1" id="Layer_1" xmlns="http://www.w3.org/2000/svg" xmlns:xlink="http://www.w3.org/1999/xlink" x="0px" y="0px"
	 viewBox="0 0 394 208" enable-background="new 0 0 394 208" xml:space="preserve">
<g>
	<g>
		<path d="M123.9,110.4h-29L93.7,62l-0.9-19.3c-0.3,3.7-0.7,7.3-1.1,10.6c-0.4,3.4-1,6.6-1.6,9.8l-9.4,47.3H56.8L49.1,63
			c-0.5-2.8-1.1-7.5-1.9-14.2c-0.1-1-0.3-3.1-0.6-6.2L46,62.2l-2.5,48.1H12.9L25.3,4.2h35.7l6,35.8c0.5,2.9,1,6.1,1.3,9.6
			c0.4,3.4,0.7,7.2,1.1,11.2c0.6-6.7,1.4-12.8,2.4-18.1l7.1-38.4h34.7L123.9,110.4z"/>
		<path d="M194.3,78l-1.7,28.8c-6.4,2.4-12.1,3.5-17.1,3.5c-11.9,0-21.9-4.2-30-12.6c-9.1-9.4-13.6-22.8-13.6-40
			c0-16.2,4.3-29.1,12.8-38.9c8.5-9.7,19.9-14.6,34.2-14.6c4.6,0,9.4,0.8,14.2,2.5V36c-4.3-4.3-8.6-6.4-13.1-6.4
			c-5.9,0-10.5,2.5-13.8,7.4c-3.3,5-5,11.9-5,20.7c0,4.3,0.4,8.1,1.2,11.5c0.8,3.4,2,6.2,3.5,8.5c1.5,2.3,3.4,4.1,5.7,5.3
			c2.2,1.2,4.8,1.8,7.7,1.8C184.3,84.9,189.3,82.6,194.3,78z"/>
		<path d="M298,110.4h-50.2V4.2h28.7v80.7H298V110.4z"/>
		<path d="M386,110.4h-29.6l-2.1-13.5h-19.3l-2.3,13.5h-29.6L328.5,4.2h35.1L386,110.4z M350.9,74.5L349,62.2c0,0-0.1-0.7-0.3-1.9
			c-0.1-1-0.6-5-1.4-12c-0.1-0.8-0.2-1.8-0.3-3.2c-0.1-1.4-0.3-3.1-0.6-5.1l-0.9-10c-0.1,1-0.2,2-0.4,3.2c-0.2,1.2-0.3,2.5-0.5,3.9
			c-0.3,2.8-0.6,4.8-0.7,5.9c-0.1,1.1-0.2,1.8-0.3,2l-2,12.9l-2.9,16.6H350.9z"/>
	</g>
	<g>
		<g>
			<path d="M8,140h29.4v7.9H27.2V207h-8.9v-59.2H8V140z"/>
			<path d="M43.3,140h9v26.2h13.2V140h9V207h-9v-33.2H52.3V207h-9V140z"/>
			<path d="M84.4,140h24v7.6h-15v21.2h13.3v7.6H93.4v22.9h15v7.6h-24V140z"/>
			<path d="M135.1,140h12.2c9.6,0,14.4,5.9,14.4,17.8c0,4.5-0.6,7.9-1.9,10.1c-1.2,2.2-3.4,3.9-6.6,5c3.6,1.4,6.1,3.3,7.4,5.6
				c1.4,2.2,2,5.6,2,10.1c0,12.3-5.3,18.5-15.8,18.5h-11.8V140z M143.6,169.5c3.5,0,6-0.8,7.3-2.4c1.4-1.7,2.1-4.7,2.1-9
				c0-7.2-2.6-10.9-7.9-10.9h-0.7H144c-0.2,0-0.4,0-0.4,0V169.5z M143.6,199.3c3.7,0,6.3-0.8,7.7-2.4c1.4-1.6,2.1-4.5,2.1-8.6
				c0-4.3-0.7-7.3-2.2-9c-1.5-1.7-4-2.6-7.6-2.6V199.3z"/>
			<path d="M204.6,175.1c0,11.8-1.3,20.3-4,25.2s-7.1,7.5-13.2,7.5c-6.5,0-11.1-2.7-13.8-8c-2.6-5.2-4-14.5-4-27.9
				c0-11.9,1.3-20.4,3.9-25.3c2.6-5,7.1-7.5,13.4-7.5c5.6,0,9.8,1.9,12.5,5.8c1.8,2.6,3.1,6.2,3.9,11
				C204.2,160.2,204.6,166.7,204.6,175.1z M195.1,176.1c0-11.6-0.5-19.3-1.6-23.1c-1-3.8-3.2-5.7-6.4-5.7c-3.2,0-5.4,1.8-6.4,5.3
				c-1,3.5-1.6,10.6-1.6,21.3c0,9.8,0.6,16.6,1.7,20.4c1.1,3.6,3.2,5.4,6.3,5.4c3,0,5.1-1.7,6.3-5
				C194.6,191.2,195.1,185.1,195.1,176.1z"/>
			<path d="M213.1,140h11.1c3.4,0,6.2,0.4,8.6,1.1c2.1,0.7,4.1,2,5.7,3.9c2.5,2.8,4.3,6.4,5.4,10.9c1.1,4.3,1.6,10.5,1.6,18.5
				c0,7.4-0.6,13.4-1.8,18.1c-1.2,4.5-3.1,7.9-5.7,10.2c-3.3,2.9-9.1,4.4-17.6,4.4h-7.3V140z M222.1,199.1c5.5,0,9.2-1.7,11-5
				c1.9-3.3,2.9-9.8,2.9-19.4c0-10.3-0.9-17.4-2.7-21.3s-5.2-5.8-10-5.8h-1.1V199.1z"/>
			<path d="M247.5,140h9.6l4.4,14.6c0.1,0.4,0.3,0.9,0.4,1.4s0.3,1.1,0.5,1.7c1.7,5.3,2.8,9.7,3.4,13.3c0.5-3.6,1-6.1,1.3-7.5l1.4-6
				l0.5-2.3l3.7-15.2h9.4l-11.7,38.2V207h-9v-28.8L247.5,140z"/>
			<path d="M288.1,140h12.2c9.6,0,14.4,5.9,14.4,17.8c0,4.5-0.6,7.9-1.9,10.1c-1.2,2.2-3.4,3.9-6.6,5c3.6,1.4,6.1,3.3,7.4,5.6
				c1.4,2.2,2,5.6,2,10.1c0,12.3-5.3,18.5-15.8,18.5h-11.8V140z M296.6,169.5c3.5,0,6-0.8,7.3-2.4c1.4-1.7,2.1-4.7,2.1-9
				c0-7.2-2.6-10.9-7.9-10.9h-0.7H297c-0.2,0-0.4,0-0.4,0V169.5z M296.6,199.3c3.7,0,6.3-0.8,7.7-2.4c1.4-1.6,2.1-4.5,2.1-8.6
				c0-4.3-0.7-7.3-2.2-9c-1.5-1.7-4-2.6-7.6-2.6V199.3z"/>
			<path d="M334.3,140h7l14.4,67.1h-8.9l-2.5-13.1H331l-2.6,13.1h-8.7L334.3,140z M343,186.9l-2-10.7c-1.3-7.3-2.4-15-3.3-23.3
				c-0.4,4-0.9,8.1-1.6,12.2c-0.6,4.1-1.4,8.5-2.3,13.1l-1.7,8.6H343z"/>
			<path d="M376.5,171.7h16.4v2.6c0,13.1-1.1,21.9-3.4,26.4c-2.3,4.7-6.5,7-12.7,7c-6.4,0-11-2.6-13.7-7.8c-2.7-5.2-4-14-4-26.3
				c0-14.1,1.5-23.4,4.4-28.1c2.8-4.4,7.1-6.6,12.8-6.6c4.4,0,7.8,1.1,10.3,3.2c2.5,2.1,4.4,5.7,5.8,10.6l-8.4,3.5
				c-0.4-1.8-0.8-3.3-1.3-4.5c-0.5-1.2-1-2.1-1.5-2.8c-1.1-1.4-2.8-2-5-2c-3,0-5.1,1.9-6.2,5.6c-1.1,3.9-1.7,10.8-1.7,20.9
				c0,10.2,0.6,17,1.7,20.6c1.1,3.6,3.3,5.4,6.4,5.4c2.9,0,4.9-1.3,6-3.8c1.2-2.7,1.8-7.1,1.8-13.1v-1.8v-1.3h-7.9V171.7z"/>
		</g>
	</g>
	<rect x="0.4" y="124.9" width="393.2" height="3.7"/>
</g>
<g>
	<g>
		<path fill="#FFFFFF" d="M120.2,106.7h-29L90,58.3L89,38.9c-0.3,3.7-0.7,7.3-1.1,10.6c-0.4,3.4-1,6.6-1.6,9.8l-9.4,47.3H53.1
			l-7.7-47.4c-0.5-2.8-1.1-7.5-1.9-14.2c-0.1-1-0.3-3.1-0.6-6.2l-0.7,19.6l-2.5,48.1H9.2L21.6,0.5h35.7l6,35.8
			c0.5,2.9,1,6.1,1.3,9.6C65,49.2,65.3,53,65.6,57c0.6-6.7,1.4-12.8,2.4-18.1l7.1-38.4h34.7L120.2,106.7z"/>
		<path fill="#FFFFFF" d="M190.6,74.3l-1.7,28.8c-6.4,2.4-12.1,3.5-17.1,3.5c-11.9,0-21.9-4.2-30-12.6c-9.1-9.4-13.6-22.8-13.6-40
			c0-16.2,4.3-29.1,12.8-38.9c8.5-9.7,19.9-14.6,34.2-14.6c4.6,0,9.4,0.8,14.2,2.5v29.3c-4.3-4.3-8.6-6.4-13.1-6.4
			c-5.9,0-10.5,2.5-13.8,7.4c-3.3,5-5,11.9-5,20.7c0,4.3,0.4,8.1,1.2,11.5c0.8,3.4,2,6.2,3.5,8.5c1.5,2.3,3.4,4.1,5.7,5.3
			c2.2,1.2,4.8,1.8,7.7,1.8C180.6,81.2,185.6,78.9,190.6,74.3z"/>
		<path fill="#FFFFFF" d="M294.3,106.7h-50.2V0.5h28.7v80.7h21.5V106.7z"/>
		<path fill="#FFFFFF" d="M382.3,106.7h-29.6l-2.1-13.5h-19.3l-2.3,13.5h-29.6L324.8,0.5h35.1L382.3,106.7z M347.2,70.8l-1.9-12.4
			c0,0-0.1-0.7-0.3-1.9c-0.1-1-0.6-5-1.4-12c-0.1-0.8-0.2-1.8-0.3-3.2c-0.1-1.4-0.3-3.1-0.6-5.1l-0.9-10c-0.1,1-0.2,2-0.4,3.2
			c-0.2,1.2-0.3,2.5-0.5,3.9c-0.3,2.8-0.6,4.8-0.7,5.9c-0.1,1.1-0.2,1.8-0.3,2l-2,12.9l-2.9,16.6H347.2z"/>
	</g>
	<g>
		<g>
			<path fill="#FFFFFF" d="M4.3,136.2h29.4v7.9H23.5v59.2h-8.9v-59.2H4.3V136.2z"/>
			<path fill="#FFFFFF" d="M39.6,136.2h9v26.2h13.2v-26.2h9v67.1h-9v-33.2H48.6v33.2h-9V136.2z"/>
			<path fill="#FFFFFF" d="M80.7,136.2h24v7.6h-15v21.2H103v7.6H89.7v22.9h15v7.6h-24V136.2z"/>
			<path fill="#FFFFFF" d="M131.4,136.2h12.2c9.6,0,14.4,5.9,14.4,17.8c0,4.5-0.6,7.9-1.9,10.1c-1.2,2.2-3.4,3.9-6.6,5
				c3.6,1.4,6.1,3.3,7.4,5.6c1.4,2.2,2,5.6,2,10.1c0,12.3-5.3,18.5-15.8,18.5h-11.8V136.2z M139.8,165.8c3.5,0,6-0.8,7.3-2.4
				c1.4-1.7,2.1-4.7,2.1-9c0-7.2-2.6-10.9-7.9-10.9h-0.7h-0.4c-0.2,0-0.4,0-0.4,0V165.8z M139.8,195.6c3.7,0,6.3-0.8,7.7-2.4
				c1.4-1.6,2.1-4.5,2.1-8.6c0-4.3-0.7-7.3-2.2-9c-1.5-1.7-4-2.6-7.6-2.6V195.6z"/>
			<path fill="#FFFFFF" d="M200.9,171.4c0,11.8-1.3,20.3-4,25.2s-7.1,7.5-13.2,7.5c-6.5,0-11.1-2.7-13.8-8c-2.6-5.2-4-14.5-4-27.9
				c0-11.9,1.3-20.4,3.9-25.3c2.6-5,7.1-7.5,13.4-7.5c5.6,0,9.8,1.9,12.5,5.8c1.8,2.6,3.1,6.2,3.9,11
				C200.5,156.5,200.9,163,200.9,171.4z M191.4,172.4c0-11.6-0.5-19.3-1.6-23.1c-1-3.8-3.2-5.7-6.4-5.7c-3.2,0-5.4,1.8-6.4,5.3
				c-1,3.5-1.6,10.6-1.6,21.3c0,9.8,0.6,16.6,1.7,20.4c1.1,3.6,3.2,5.4,6.3,5.4c3,0,5.1-1.7,6.3-5
				C190.9,187.5,191.4,181.4,191.4,172.4z"/>
			<path fill="#FFFFFF" d="M209.4,136.2h11.1c3.4,0,6.2,0.4,8.6,1.1c2.1,0.7,4.1,2,5.7,3.9c2.5,2.8,4.3,6.4,5.4,10.9
				c1.1,4.3,1.6,10.5,1.6,18.5c0,7.4-0.6,13.4-1.8,18.1c-1.2,4.5-3.1,7.9-5.7,10.2c-3.3,2.9-9.1,4.4-17.6,4.4h-7.3V136.2z
				 M218.4,195.4c5.5,0,9.2-1.7,11-5c1.9-3.3,2.9-9.8,2.9-19.4c0-10.3-0.9-17.4-2.7-21.3s-5.2-5.8-10-5.8h-1.1V195.4z"/>
			<path fill="#FFFFFF" d="M243.8,136.2h9.6l4.4,14.6c0.1,0.4,0.3,0.9,0.4,1.4c0.1,0.5,0.3,1.1,0.5,1.7c1.7,5.3,2.8,9.7,3.4,13.3
				c0.5-3.6,1-6.1,1.3-7.5l1.4-6l0.5-2.3l3.7-15.2h9.4l-11.7,38.2v28.8h-9v-28.8L243.8,136.2z"/>
			<path fill="#FFFFFF" d="M284.4,136.2h12.2c9.6,0,14.4,5.9,14.4,17.8c0,4.5-0.6,7.9-1.9,10.1c-1.2,2.2-3.4,3.9-6.6,5
				c3.6,1.4,6.1,3.3,7.4,5.6c1.4,2.2,2,5.6,2,10.1c0,12.3-5.3,18.5-15.8,18.5h-11.8V136.2z M292.9,165.8c3.5,0,6-0.8,7.3-2.4
				c1.4-1.7,2.1-4.7,2.1-9c0-7.2-2.6-10.9-7.9-10.9h-0.7h-0.4c-0.2,0-0.4,0-0.4,0V165.8z M292.9,195.6c3.7,0,6.3-0.8,7.7-2.4
				c1.4-1.6,2.1-4.5,2.1-8.6c0-4.3-0.7-7.3-2.2-9c-1.5-1.7-4-2.6-7.6-2.6V195.6z"/>
			<path fill="#FFFFFF" d="M330.6,136.2h7l14.4,67.1h-8.9l-2.5-13.1h-13.3l-2.6,13.1H316L330.6,136.2z M339.3,183.2l-2-10.7
				c-1.3-7.3-2.4-15-3.3-23.3c-0.4,4-0.9,8.1-1.6,12.2c-0.6,4.1-1.4,8.5-2.3,13.1l-1.7,8.6H339.3z"/>
			<path fill="#FFFFFF" d="M372.7,168h16.4v2.6c0,13.1-1.1,21.9-3.4,26.4c-2.3,4.7-6.5,7-12.7,7c-6.4,0-11-2.6-13.7-7.8
				c-2.7-5.2-4-14-4-26.3c0-14.1,1.5-23.4,4.4-28.1c2.8-4.4,7.1-6.6,12.8-6.6c4.4,0,7.8,1.1,10.3,3.2c2.5,2.1,4.4,5.7,5.8,10.6
				l-8.4,3.5c-0.4-1.8-0.8-3.3-1.3-4.5c-0.5-1.2-1-2.1-1.5-2.8c-1.1-1.4-2.8-2-5-2c-3,0-5.1,1.9-6.2,5.6c-1.1,3.9-1.7,10.8-1.7,20.9
				c0,10.2,0.6,17,1.7,20.6s3.3,5.4,6.4,5.4c2.9,0,4.9-1.3,6-3.8c1.2-2.7,1.8-7.1,1.8-13.1V177v-1.3h-7.9V168z"/>
		</g>
	</g>
	<rect x="0.4" y="121.2" fill="#FFFFFF" width="393.2" height="3.7"/>
</g>
</svg>
