<?xml version="1.0" encoding="utf-8"?>
<svg version="1.1" id="Layer_1" xmlns="http://www.w3.org/2000/svg" xmlns:xlink="http://www.w3.org/1999/xlink" x="0px" y="0px"
	 viewBox="0 0 176 106" xml:space="preserve">
<g>
	<polygon points="0.5,106.1 176.3,106.1 176.3,0.7 0.5,0.7 	"/>
	<polygon fill="#FFFFFF" points="1,78 175.7,78 175.7,28.4 1,28.4 	"/>
	<path d="M19.4,36.2h2.9l4.5,34.8h-4.5l-0.7-7.7h-2.1v-4.8H21l-1.4-14.5h-0.2V36.2L19.4,36.2z M12.3,71.1l4.5-34.8h2.7v7.9h-0.2
		l-1.4,14.5h1.6v4.8h-2.1l-0.9,7.7H12.3L12.3,71.1z"/>
	<path d="M40.7,65.9c0.7,0,1.2-0.4,1.4-0.9c0.4-0.7,0.5-1.6,0.5-2.9V45.5c0-1.4-0.2-2.5-0.7-3c-0.4-0.5-0.7-0.7-1.2-0.9v-5.4
		c2,0.2,3.6,0.9,4.6,2.3c1.1,1.6,1.6,3.9,1.6,7.3v15.4c0,3.4-0.5,5.9-1.6,7.5c-1.1,1.4-2.5,2.1-4.6,2.3V65.9L40.7,65.9z M38.5,65.9
		h2c0.2,0,0.2,0,0.2,0v5.2c-0.2,0-0.2,0-0.2,0h-6.1V36.2h5.9c0,0,0.2,0,0.4,0v5.4c-0.4-0.2-0.7-0.2-1.2-0.2h-0.9V65.9L38.5,65.9z"/>
	<path d="M55.5,36.2h3.8l2.3,20.5c0.2,1.2,0.4,2.5,0.4,3.8c0,1.1,0.2,2.3,0.2,3.6v0.5c0-1.6,0-3,0-4.3c0.2-1.4,0.2-2.5,0.4-3.6
		l2.3-20.5h3.8l-4.5,34.8H60L55.5,36.2L55.5,36.2z"/>
	<polygon points="76.1,71.2 76.1,36.6 80.3,36.6 80.3,71.2 	"/>
	<path d="M87.7,62.7l3.4-0.7c0.2,1.8,0.4,3,0.7,3.9c0.4,0.9,1.1,1.3,1.8,1.3c0.7,0,1.3-0.4,1.6-0.9c0.5-0.7,0.7-1.4,0.7-2.5
		c0-1.8-1.1-4.1-3-7l-0.4-0.5c-2-2.9-3.2-4.8-3.8-6.4c-0.4-1.4-0.7-3-0.7-4.8c0-2.5,0.4-4.5,1.6-6.3c1.1-1.6,2.5-2.5,4.1-2.5
		c1.4,0,2.9,0.7,3.8,2.3c1.1,1.6,1.6,3.8,1.8,6.3l-3.8,0.9c0-1.6-0.2-2.7-0.5-3.4c-0.4-0.7-0.7-1.1-1.4-1.1c-0.5,0-1.1,0.4-1.4,0.9
		s-0.5,1.4-0.5,2.3c0,2.1,1.1,4.6,3.6,8l0.2,0.4c1.6,2.1,2.9,4.1,3.4,5.7c0.5,1.4,0.7,3.2,0.7,5.2c0,2.5-0.5,4.5-1.6,6.3
		c-1.1,1.6-2.5,2.3-4.1,2.3c-2,0-3.4-0.7-4.5-2.5C88.4,68,87.8,65.7,87.7,62.7L87.7,62.7z"/>
	<path d="M117.1,64.1V44.8c0-1.2-0.2-2.1-0.5-2.9c-0.4-0.5-0.9-0.9-1.4-0.9v-4.8l0,0c2,0,3.4,0.9,4.5,2.5s1.6,3.8,1.6,6.4v17.7
		c0,3.2-0.5,5.5-1.6,7.1s-2.7,2.5-4.5,2.5v-4.8c0.5,0,1.1-0.4,1.4-0.9C117,66.2,117.1,65.2,117.1,64.1L117.1,64.1z M115.2,41.1
		c-0.7,0-1.2,0.4-1.6,0.9c-0.4,0.7-0.5,1.6-0.5,2.9v19.3c0,1.1,0.2,2.1,0.5,2.7c0.4,0.5,0.9,0.9,1.6,0.9v4.8c-2.1,0-3.6-0.9-4.6-2.5
		c-1.1-1.6-1.6-4.1-1.6-7.1V45c0-2.7,0.7-4.8,1.8-6.4c1.1-1.4,2.5-2.3,4.5-2.3V41.1L115.2,41.1z"/>
	<path d="M137.5,51.4c0.5-0.2,1.1-0.5,1.4-1.1c0.4-0.7,0.5-2.1,0.5-4.1c0-2-0.2-3.2-0.7-3.9c-0.2-0.5-0.7-0.9-1.2-0.9v-5.2
		c2,0,3.4,0.9,4.5,2.3c0.9,1.6,1.4,4.3,1.4,7.9c0,2.1-0.2,3.9-0.7,5.2c-0.4,1.4-0.9,2.3-1.8,3.2l2.9,16.3h-4.1L137.5,57L137.5,51.4
		L137.5,51.4z M135.5,41.2v10.2h1.4c0.2,0,0.4,0,0.5,0V57l-0.2-0.7h-1.8v14.8h-3.9V36.2h5.7c0,0,0,0,0.2,0v5.2
		c-0.2-0.2-0.4-0.2-0.7-0.2H135.5L135.5,41.2z"/>
	<polygon points="150.9,36.2 155.2,36.2 157.7,50.2 158,50.2 160.5,36.2 164.6,36.2 160,56.4 160,71.1 155.9,71.1 155.9,57.1 	"/>
	<path fill="#FFFFFF" d="M17.6,13.9c0.4,0,0.7-0.2,0.9-0.7c0.4-0.4,0.4-1.4,0.4-2.7s0-2.1-0.4-2.5c-0.2-0.4-0.5-0.7-0.9-0.7V4.1
		c1.4,0,2.3,0.5,3,1.6c0.7,0.9,0.9,2.5,0.9,4.8c0,2-0.2,3.6-0.9,4.8c-0.7,1.2-1.4,1.8-2.7,1.8h-0.4V13.9L17.6,13.9z M16.2,13.9h1.1
		c0.2,0,0.2,0,0.4,0v3.2h-1.4v8.9h-2.7v-22h3.9c0,0,0,0,0.2,0v3.2c-0.2,0-0.4,0-0.4,0h-1.1L16.2,13.9L16.2,13.9z"/>
	<path fill="#FFFFFF" d="M38,4.1h1.6l2.9,22h-2.7l-0.5-4.8H38v-3h0.9L38,9.1L38,4.1L38,4.1z M33.5,26.1l2.7-22H38v5h-0.2l-0.9,9.1
		H38v3h-1.4L36,26.1H33.5L33.5,26.1z"/>
	<path fill="#FFFFFF" d="M59.1,13.5c0.5,0,0.9-0.2,1.1-0.5c0.2-0.5,0.4-1.4,0.4-2.7s-0.2-2-0.4-2.3c-0.2-0.4-0.5-0.7-1.1-0.7V4.1
		c1.4,0,2.3,0.5,3,1.6c0.5,0.9,0.9,2.5,0.9,4.8c0,1.2-0.2,2.3-0.4,3.2c-0.4,0.9-0.7,1.6-1.2,2.1l1.8,10.2h-2.5l-1.6-8.8L59.1,13.5
		L59.1,13.5z M57.8,7.3v6.3h1.1h0.2v3.8v-0.5h-1.2v9.3h-2.5v-22h3.8l0,0v3.2c0,0-0.2,0-0.4,0L57.8,7.3L57.8,7.3z"/>
	<polygon fill="#FFFFFF" points="76.4,26.1 76.4,4.1 83.4,4.1 83.4,7.3 79.1,7.3 79.1,13 82.1,13 82.1,16.2 79.1,16.2 79.1,22.7 
		83.4,22.7 83.4,26.1 	"/>
	<path fill="#FFFFFF" d="M96.1,26.1v-22h2.1l3,13c0,0.4,0.2,0.7,0.2,1.1c0.2,0.4,0.2,0.9,0.4,1.2c-0.2-0.5-0.2-1.1-0.2-1.6
		c-0.2-0.7-0.2-1.1-0.2-1.2V4.1h2.3v22h-2.3l-2.9-12.1v-0.2c-0.2-0.9-0.4-1.6-0.5-2.1c0.2,0.7,0.2,1.4,0.2,1.8
		c0.2,0.5,0.2,0.9,0.2,1.2v11.4L96.1,26.1L96.1,26.1z"/>
	<polygon fill="#FFFFFF" points="115.3,7.3 115.3,4.1 123.2,4.1 123.2,7.3 120.5,7.3 120.5,26.1 118,26.1 118,7.3 	"/>
	<path fill="#FFFFFF" d="M139.3,4.1h1.6l2.7,22h-2.5l-0.5-4.8h-1.2v-3h0.9l-0.9-9.1L139.3,4.1L139.3,4.1z M135,26.1l2.7-22h1.6v5
		l-0.9,9.1h0.9v3H138l-0.5,4.8H135L135,26.1z"/>
	<polygon fill="#FFFFFF" points="156.6,26.1 156.6,4.1 159.3,4.1 159.3,22.8 163.2,22.8 163.2,26.1 	"/>
	<polygon fill="#FFFFFF" points="7.1,102.3 7.1,81.2 13.2,81.2 13.2,84.3 9.4,84.3 9.4,89.8 12.1,89.8 12.1,92.9 9.4,92.9 9.4,99.1 
		13.2,99.1 13.2,102.3 	"/>
	<polygon fill="#FFFFFF" points="16.8,102.3 19.4,91.6 16.8,81.2 19.3,81.2 20.5,87.5 20.7,87.5 22.1,81.2 24.4,81.2 21.9,91.2 
		24.6,102.3 22.3,102.3 20.9,95.5 20.7,95.5 19.1,102.3 	"/>
	<path fill="#FFFFFF" d="M32.7,90.7c0.4,0,0.5-0.4,0.7-0.7c0.2-0.4,0.4-1.2,0.4-2.5c0-1.2-0.2-2.1-0.4-2.5c-0.2-0.4-0.4-0.5-0.7-0.7
		v-3c1.1,0,2,0.5,2.5,1.4c0.5,1.1,0.7,2.5,0.7,4.6c0,2-0.2,3.6-0.7,4.6c-0.5,1.2-1.2,1.8-2.1,1.8h-0.4V90.7L32.7,90.7z M31.6,90.7
		h0.9c0,0,0,0,0.2,0v3h-1.1v8.6h-2.1V81.2h3c0.2,0,0.2,0,0.2,0v3c-0.2,0-0.2,0-0.4,0h-0.7L31.6,90.7L31.6,90.7z"/>
	<polygon fill="#FFFFFF" points="40.7,102.3 40.7,81.2 43,81.2 43,99.3 46.8,99.3 46.8,102.3 	"/>
	<polygon fill="#FFFFFF" points="51.4,102.3 51.4,81.2 53.5,81.2 53.5,102.3 	"/>
	<path fill="#FFFFFF" d="M58,97.3V86.6c0-1.6,0.4-3,0.9-3.9c0.5-0.9,1.4-1.4,2.5-1.4s1.8,0.5,2.5,1.4c0.5,1.1,0.9,2.3,0.9,3.9v2.1
		h-2.3v-2.3c0-0.7,0-1.2-0.2-1.6c-0.4-0.4-0.5-0.5-0.9-0.5s-0.7,0.2-0.9,0.5s-0.4,0.9-0.4,1.6V98c0,0.7,0.2,1.4,0.4,1.8
		s0.5,0.5,0.9,0.5s0.5-0.2,0.9-0.5c0.2-0.4,0.2-1.1,0.2-1.8v-2.9h2.3v2.3c0,1.8-0.4,3.2-0.9,4.1c-0.5,1.1-1.4,1.6-2.5,1.6
		s-2-0.5-2.5-1.4C58.2,100.7,58,99.3,58,97.3L58,97.3z"/>
	<polygon fill="#FFFFFF" points="69.4,102.3 69.4,81.2 71.8,81.2 71.8,102.3 	"/>
	<polygon fill="#FFFFFF" points="75.3,84.3 75.3,81.2 82.3,81.2 82.3,84.3 80,84.3 80,102.3 77.7,102.3 77.7,84.3 	"/>
	<path fill="#FFFFFF" d="M96.1,97.3V86.6c0-1.6,0.4-3,1.1-3.9c0.5-0.9,1.4-1.4,2.7-1.4c1.1,0,2,0.5,2.5,1.4c0.7,1.1,0.9,2.3,0.9,3.9
		v2.1h-2.3v-2.3c0-0.7,0-1.2-0.4-1.6c-0.2-0.4-0.4-0.5-0.9-0.5c-0.4,0-0.7,0.2-0.9,0.5c-0.2,0.4-0.2,0.9-0.2,1.6V98
		c0,0.7,0,1.4,0.2,1.8c0.2,0.4,0.5,0.5,0.9,0.5c0.5,0,0.7-0.2,0.9-0.5c0.4-0.4,0.4-1.1,0.4-1.8v-2.9h2.3v2.3c0,1.8-0.2,3.2-0.9,4.1
		c-0.5,1.1-1.4,1.6-2.7,1.6c-1.1,0-2-0.5-2.7-1.4C96.4,100.7,96.1,99.3,96.1,97.3L96.1,97.3z"/>
	<path fill="#FFFFFF" d="M112.3,98V86.4c0-0.7,0-1.2-0.2-1.6c-0.2-0.4-0.5-0.5-0.9-0.5v-3l0,0c1.1,0,2,0.5,2.5,1.4
		c0.7,1.1,0.9,2.3,0.9,3.9v10.9c0,1.8-0.2,3.2-0.9,4.1c-0.5,1.1-1.4,1.6-2.5,1.6v-2.9c0.4,0,0.7-0.2,0.9-0.5
		C112.3,99.5,112.3,98.7,112.3,98L112.3,98z M111.2,84.3c-0.4,0-0.7,0.2-0.9,0.5c-0.2,0.4-0.4,0.9-0.4,1.6V98c0,0.7,0.2,1.4,0.4,1.8
		c0.2,0.4,0.5,0.5,0.9,0.5v2.9c-1.1,0-2-0.5-2.5-1.4c-0.7-1.1-0.9-2.5-0.9-4.5V86.6c0-1.6,0.2-3,0.9-3.9c0.5-0.9,1.4-1.4,2.5-1.4
		V84.3L111.2,84.3z"/>
	<path fill="#FFFFFF" d="M119.5,102.3V81.2h2l2.7,12.5c0.2,0.4,0.2,0.7,0.2,1.1c0.2,0.4,0.2,0.7,0.4,1.2c-0.2-0.5-0.2-1.2-0.2-1.6
		c-0.2-0.5-0.2-0.9-0.2-1.2v-12h2.1v21.1h-2.1l-2.7-11.6v-0.2c-0.2-0.9-0.4-1.6-0.4-2.1c0,0.7,0.2,1.4,0.2,1.8c0,0.5,0,0.9,0,1.1
		v11.1L119.5,102.3L119.5,102.3z"/>
	<polygon fill="#FFFFFF" points="130,84.3 130,81.2 137.1,81.2 137.1,84.3 134.8,84.3 134.8,102.3 132.3,102.3 132.3,84.3 	"/>
	<polygon fill="#FFFFFF" points="141.8,102.3 141.8,81.2 147.1,81.2 147.1,84.3 143.9,84.3 143.9,89.8 146.2,89.8 146.2,92.9 
		143.9,92.9 143.9,99.1 147.1,99.1 147.1,102.3 	"/>
	<path fill="#FFFFFF" d="M152,102.3V81.2h2l2.9,12.5c0,0.4,0,0.7,0.2,1.1c0,0.4,0.2,0.7,0.2,1.2c0-0.5-0.2-1.2-0.2-1.6
		c0-0.5,0-0.9,0-1.2v-12h2v21.1h-2l-2.7-11.6l-0.2-0.2c-0.2-0.9-0.2-1.6-0.4-2.1c0,0.7,0.2,1.4,0.2,1.8c0,0.5,0,0.9,0,1.1v11.1
		L152,102.3L152,102.3z"/>
	<polygon fill="#FFFFFF" points="162.5,84.3 162.5,81.2 169.5,81.2 169.5,84.3 167.1,84.3 167.1,102.3 165,102.3 165,84.3 	"/>
</g>
</svg>
