<svg x="0px" y="0px">
<g>
	<path fill="#FFFFFF" d="M43.1,12.3c-0.7,0-1,0.4-1,0.9V15c0,0.5,0.3,0.9,1,0.9c0.7,0,1-0.4,1-0.9v-1.8
		C44.1,12.7,43.9,12.3,43.1,12.3z"/>
	<path fill="#FFFFFF" d="M36.2,12.3c-0.4,0-0.8,0.1-1.1,0.3V16c0.3,0,0.5,0,0.8,0c1.1,0,1.2-0.5,1.2-1.2v-1.6
		C37.1,12.7,36.9,12.3,36.2,12.3z"/>
	<path fill="#FFFFFF" d="M15.3,15.6c0,0.4,0.2,0.6,0.6,0.6c0.4,0,0.7-0.1,1-0.3v-0.8h-1C15.5,15.1,15.3,15.2,15.3,15.6z"/>
	<path fill="#FFFFFF" d="M29.1,12.1c-0.7,0-0.9,0.4-0.9,0.9v0.3H30V13C30,12.5,29.8,12.1,29.1,12.1z"/>
	<path fill="#FFFFFF" d="M50.1,12.3c-0.7,0-1,0.4-1,0.9V15c0,0.5,0.3,0.9,1,0.9c0.7,0,1-0.4,1-0.9v-1.8
		C51.1,12.7,50.9,12.3,50.1,12.3z"/>
	<path fill="#FFFFFF" d="M1.1-0.1v25h66.6v-25H1.1z M11.6,17.7H9.4v-5.3H8.4v-1.8h1.1V9.5c0-1.5,0.6-2.4,2.4-2.4h1.5v1.8h-0.9
		c-0.7,0-0.7,0.3-0.7,0.7l0,0.9h1.7l-0.2,1.8h-1.5V17.7z M19.1,17.7h-1.8l-0.1-0.5c-0.8,0.5-1.6,0.5-2.1,0.5c-1.3,0-2.1-0.9-2.1-2.1
		c0-1.5,0.8-2,2.3-2h1.5v-0.3c0-0.7-0.1-1-1.2-1h-1.9l0.2-1.8h2c2.5,0,3.1,0.8,3.1,2.8V17.7z M25.3,12.5c-1.1-0.2-1.5-0.2-2-0.2
		c-1,0-1.3,0.2-1.3,1v1.6c0,0.8,0.3,1,1.3,1c0.5,0,0.9,0,2-0.2v1.8c-1,0.2-1.6,0.3-2.2,0.3c-2.4,0-3.3-1.2-3.3-3v-1.3
		c0-1.8,0.9-3,3.3-3c0.5,0,1.2,0.1,2.2,0.3V12.5z M32.2,14.8h-4v0.1c0,0.8,0.3,1,1.3,1c0.9,0,1.4,0,2.6-0.2v1.8
		c-1.1,0.2-1.7,0.3-2.7,0.3c-2.4,0-3.3-1.2-3.3-3v-1.5c0-1.6,0.7-2.8,3.1-2.8c2.4,0,3.1,1.3,3.1,2.8V14.8z M39.3,14.8
		c0,1.7-0.5,3-3.5,3c-1.1,0-1.7-0.1-2.9-0.3V7.6l2.2-0.4v3.4c0.5-0.2,1.1-0.3,1.6-0.3c2.2,0,2.6,1,2.6,2.6V14.8z M46.3,14.8
		c0,1.5-0.6,2.9-3.2,2.9c-2.6,0-3.2-1.4-3.2-2.9v-1.4c0-1.5,0.6-2.9,3.2-2.9c2.6,0,3.2,1.4,3.2,2.9V14.8z M53.3,14.8
		c0,1.5-0.6,2.9-3.2,2.9c-2.6,0-3.2-1.4-3.2-2.9v-1.4c0-1.5,0.6-2.9,3.2-2.9c2.6,0,3.2,1.4,3.2,2.9V14.8z M60.5,17.7h-2.4l-2-3.3
		v3.3H54v-10l2.2-0.4v6.5l2-3.2h2.4L58.3,14L60.5,17.7z M61.8,17.8c-0.4,0-0.7-0.3-0.7-0.7c0-0.4,0.3-0.7,0.7-0.7h0
		c0.4,0,0.7,0.3,0.7,0.7C62.4,17.5,62.1,17.8,61.8,17.8z"/>
	<path fill="#FFFFFF" d="M61.7,16.8C61.7,16.8,61.7,16.8,61.7,16.8l-0.1,0.3h0.1c0.1,0,0.2,0,0.2-0.1C61.9,16.9,61.9,16.8,61.7,16.8
		z"/>
	<path fill="#FFFFFF" d="M61.8,16.5L61.8,16.5c-0.3,0-0.5,0.3-0.5,0.6c0,0.3,0.2,0.6,0.5,0.6c0.3,0,0.5-0.3,0.5-0.6
		C62.3,16.8,62.1,16.5,61.8,16.5z M61.9,17.5c0,0,0-0.1-0.1-0.2c0-0.1-0.1-0.1-0.2-0.1h-0.1v0.3h-0.1v-0.8c0.1,0,0.1,0,0.2,0
		c0.1,0,0.2,0,0.2,0.1c0,0,0.1,0.1,0.1,0.2c0,0.1-0.1,0.2-0.1,0.2v0c0.1,0,0.1,0.1,0.1,0.2c0,0.1,0,0.2,0,0.2H61.9z"/>
</g>
</svg>
